<svg width="25" height="25" viewBox="0 0 25 25" fill="none" xmlns="http://www.w3.org/2000/svg">
<path fill-rule="evenodd" clip-rule="evenodd" d="M21.7852 0.91394C23.9625 0.91394 24.817 2.69241 24.817 3.93259C24.817 5.17278 24.817 19.6955 24.817 21.556C24.817 23.3069 23.5885 24.8706 21.7852 24.8706C19.9818 24.8706 5.50965 24.8706 3.66964 24.8706C2.24697 24.8706 0.860352 23.4287 0.860352 22.0726C0.860352 20.7165 0.860352 4.94927 0.860352 3.58649C0.860352 2.22372 2.22575 0.91394 3.46991 0.91394C4.71407 0.91394 19.8205 0.91394 21.7852 0.91394Z" fill="url(#paint0_linear_3280_31804)"/>
<mask id="mask0_3280_31804" style="mask-type:luminance" maskUnits="userSpaceOnUse" x="0" y="0" width="25" height="25">
<path fill-rule="evenodd" clip-rule="evenodd" d="M21.7852 0.91394C23.9625 0.91394 24.817 2.69241 24.817 3.93259C24.817 5.17278 24.817 19.6955 24.817 21.556C24.817 23.3069 23.5885 24.8706 21.7852 24.8706C19.9818 24.8706 5.50965 24.8706 3.66964 24.8706C2.24697 24.8706 0.860352 23.4287 0.860352 22.0726C0.860352 20.7165 0.860352 4.94927 0.860352 3.58649C0.860352 2.22372 2.22575 0.91394 3.46991 0.91394C4.71407 0.91394 19.8205 0.91394 21.7852 0.91394Z" fill="white"/>
</mask>
<g mask="url(#mask0_3280_31804)">
<rect x="0.860352" y="0.91394" width="24" height="24" fill="#65C9C9"/>
</g>
<path fill-rule="evenodd" clip-rule="evenodd" d="M6.58279 2.37358L10.1153 8.02584H7.73456L7.68868 10.6934C7.5434 10.6843 7.39691 10.6797 7.24935 10.6797C6.5193 10.6797 5.81563 10.7926 5.15485 11.0019L5.18644 8.02584H3.05029L6.58279 2.37358ZM13.3741 20.8487C13.7386 20.1612 13.9908 19.405 14.1061 18.6046H18.0278V16.389L23.6798 19.9216L18.0278 23.4543V20.8487H13.3741ZM23.5798 6.31882C23.1822 4.06405 21.032 2.5585 18.7773 2.95608C16.6684 3.32795 15.2149 5.23299 15.361 7.3228L8.96515 12.5865C8.1699 12.3301 7.30224 12.2585 6.42211 12.4137C3.53911 12.9221 1.61408 15.6713 2.12243 18.5543C2.63079 21.4373 5.38003 23.3624 8.26303 22.854C11.0886 22.3558 12.994 19.7051 12.5902 16.8856C13.2327 16.1171 14.768 14.4519 16.0847 13.0237C16.9006 12.1388 17.6326 11.3448 18.0164 10.9115C18.6946 11.1715 19.4497 11.2566 20.217 11.1213C22.4718 10.7237 23.9774 8.57358 23.5798 6.31882ZM22.4128 6.52454C22.1288 4.91399 20.593 3.8386 18.9825 4.12259C17.3719 4.40657 16.2965 5.9424 16.5805 7.55294C16.8645 9.16349 18.4003 10.2389 20.0109 9.9549C21.6214 9.67091 22.6968 8.13509 22.4128 6.52454ZM6.68535 13.9052C8.74464 13.5421 10.7084 14.9171 11.0715 16.9764C11.4346 19.0357 10.0596 20.9994 8.00029 21.3625C5.94101 21.7256 3.97726 20.3506 3.61415 18.2913C3.25104 16.232 4.62606 14.2683 6.68535 13.9052Z" fill="white"/>
<defs>
<linearGradient id="paint0_linear_3280_31804" x1="0.860352" y1="0.91394" x2="0.860352" y2="24.8706" gradientUnits="userSpaceOnUse">
<stop stop-color="#ADADAD" stop-opacity="0.01"/>
<stop offset="1" stop-color="#9D9D9D"/>
</linearGradient>
</defs>
</svg>
