<?xml version="1.0" encoding="utf-8"?>
<!-- Generator: Adobe Illustrator 26.5.0, SVG Export Plug-In . SVG Version: 6.00 Build 0)  -->
<svg version="1.1" id="Laag_1" xmlns="http://www.w3.org/2000/svg" xmlns:xlink="http://www.w3.org/1999/xlink" x="0px" y="0px"
	 viewBox="0 0 643.2 207.6" style="enable-background:new 0 0 643.2 207.6;" xml:space="preserve">
<style type="text/css">
	.st0{fill:#020203;}
	.st1{fill:#BE0712;}
	.st2{fill:#FFFFFF;}
</style>
<g>
	<g>
		<path class="st0" d="M446.5,84c1.7,0,3.3-0.6,4.5-1.9c1.3-1.2,1.9-2.8,1.9-4.5s-0.6-3.3-1.9-4.5c-1.3-1.3-2.8-1.9-4.5-1.9h-49
			c-1.7,0-3.3,0.6-4.5,1.9c-1.3,1.3-1.9,2.8-1.9,4.5v58.8c0,1.7,0.6,3.3,1.9,4.5c1.2,1.3,2.8,1.9,4.5,1.9h49c1.7,0,3.3-0.6,4.5-1.9
			c1.3-1.2,1.9-2.8,1.9-4.5s-0.6-3.3-1.9-4.5c-1.3-1.3-2.8-1.9-4.5-1.9h-42.6v-16.6h32.8c1.7,0,3.3-0.6,4.5-1.9
			c1.2-1.2,1.9-2.8,1.9-4.5s-0.6-3.3-1.9-4.5c-1.3-1.3-2.8-1.9-4.5-1.9h-32.8V84H446.5z"/>
		<path class="st0" d="M378.9,71.2h-49c-1.7,0-3.3,0.6-4.5,1.9c-1.3,1.3-1.9,2.8-1.9,4.5s0.6,3.3,1.9,4.5c1.3,1.3,2.8,1.9,4.5,1.9
			H348v52.4c0,1.7,0.6,3.3,1.9,4.5c1.3,1.3,2.8,1.9,4.5,1.9s3.3-0.6,4.5-1.9c1.3-1.3,1.9-2.8,1.9-4.5V84h18.1c1.7,0,3.3-0.6,4.5-1.9
			c1.3-1.3,1.9-2.8,1.9-4.5s-0.6-3.3-1.9-4.5C382.2,71.8,380.7,71.2,378.9,71.2z"/>
		<path class="st0" d="M290.6,71.2c-9.8,0-18.4,3.5-25.3,10.5c-7,7-10.5,15.5-10.5,25.3s3.5,18.4,10.5,25.3c7,7,15.5,10.5,25.3,10.5
			s18.4-3.5,25.3-10.5c7-7,10.5-15.5,10.5-25.3s-3.5-18.4-10.5-25.3C309,74.7,300.4,71.2,290.6,71.2z M313.6,107
			c0,6.4-2.2,11.7-6.7,16.3c-4.5,4.5-9.9,6.7-16.3,6.7s-11.7-2.2-16.3-6.7c-4.5-4.5-6.7-9.9-6.7-16.3s2.2-11.7,6.7-16.3
			c4.5-4.5,9.9-6.7,16.3-6.7s11.7,2.2,16.3,6.7C311.4,95.3,313.6,100.6,313.6,107z"/>
		<path class="st0" d="M241.5,77.3c-4.1-4.1-9.1-6.2-14.9-6.2h-34.3c-1.7,0-3.3,0.6-4.5,1.9c-1.3,1.3-1.9,2.8-1.9,4.5
			s0.6,3.3,1.9,4.5c1.3,1.3,2.8,1.9,4.5,1.9h34.3c2.3,0,4.2,0.8,5.9,2.4c1.6,1.6,2.4,3.6,2.4,5.9s-0.8,4.2-2.4,5.9
			c-1.6,1.6-3.6,2.4-5.9,2.4h-34.3c-1.7,0-3.3,0.6-4.5,1.9c-1.3,1.3-1.9,2.8-1.9,4.5s0.6,3.3,1.9,4.5c1.3,1.3,2.8,1.9,4.5,1.9h34.3
			c2.3,0,4.2,0.8,5.9,2.4c1.6,1.6,2.4,3.6,2.4,5.9s-0.8,4.2-2.4,5.9c-1.6,1.6-3.6,2.4-5.9,2.4h-34.3c-1.7,0-3.3,0.6-4.5,1.9
			c-1.3,1.2-1.9,2.8-1.9,4.5s0.6,3.3,1.9,4.5c1.3,1.3,2.8,1.9,4.5,1.9h34.3c5.8,0,10.8-2.1,14.9-6.2c4.1-4.1,6.2-9.1,6.2-14.9
			c0-5.7-2-10.7-5.9-14.7c3.9-4.1,5.9-9,5.9-14.7C247.7,86.5,245.6,81.4,241.5,77.3z"/>
		<path class="st0" d="M98,107.2c4.1-4.1,6.2-9.1,6.2-14.9s-2.1-10.8-6.2-14.9s-9.1-6.2-14.9-6.2H48.7c-1.7,0-3.3,0.6-4.5,1.9
			c-1.3,1.3-1.9,2.8-1.9,4.5s0.6,3.3,1.9,4.5c1.3,1.3,2.8,1.9,4.5,1.9H83c2.3,0,4.2,0.8,5.9,2.4c1.6,1.6,2.4,3.6,2.4,5.9
			s-0.8,4.2-2.4,5.9c-1.6,1.6-3.6,2.4-5.9,2.4H48.7c-1.7,0-3.3,0.6-4.5,1.9c-1.3,1.3-1.9,2.8-1.9,4.5v29.4c0,1.7,0.6,3.3,1.9,4.5
			c1.2,1.3,2.8,1.9,4.5,1.9s3.3-0.6,4.5-1.9c1.3-1.3,1.9-2.8,1.9-4.5v-17.2l39.3,22.7c1,0.6,2.1,0.9,3.3,0.9c1.8,0,3.3-0.6,4.6-1.9
			c1.2-1.2,1.9-2.8,1.9-4.5s-0.6-3.3-1.9-4.6c-0.6-0.5-1.2-0.9-1.7-1.2l-29.9-17.2h12.4C88.9,113.4,93.9,111.3,98,107.2z"/>
		<path class="st0" d="M145,71.2c-9.8,0-18.4,3.5-25.3,10.5c-7,7-10.5,15.5-10.5,25.3s3.5,18.4,10.5,25.3c7,7,15.5,10.5,25.3,10.5
			s18.4-3.5,25.3-10.5c7-7,10.5-15.5,10.5-25.3s-3.5-18.4-10.5-25.3C163.4,74.7,154.8,71.2,145,71.2z M168,107
			c0,6.4-2.2,11.7-6.7,16.3c-4.5,4.5-9.9,6.7-16.3,6.7c-6.4,0-11.7-2.2-16.3-6.7c-4.5-4.5-6.7-9.9-6.7-16.3s2.2-11.7,6.7-16.3
			c4.5-4.5,9.9-6.7,16.3-6.7s11.7,2.2,16.3,6.7C165.8,95.3,168,100.6,168,107z"/>
		<path class="st0" d="M509.3,130h-19.6c-6.4,0-11.7-2.2-16.3-6.7c-4.5-4.5-6.7-9.9-6.7-16.3s2.2-11.7,6.7-16.3s9.9-6.7,16.3-6.7
			h19.6c1.7,0,3.3-0.6,4.5-1.9c1.3-1.2,1.9-2.8,1.9-4.5s-0.6-3.3-1.9-4.5c-1.3-1.3-2.8-1.9-4.5-1.9h-19.6c-9.8,0-18.4,3.5-25.3,10.5
			c-7,7-10.5,15.5-10.5,25.3s3.5,18.4,10.5,25.3c7,7,15.5,10.5,25.3,10.5h19.6c1.7,0,3.3-0.6,4.5-1.9c1.3-1.3,1.9-2.8,1.9-4.5
			s-0.6-3.3-1.9-4.5C512.6,130.6,511.1,130,509.3,130z"/>
	</g>
	<path class="st1" d="M601.3,69c0,20.2-16.4,36.7-36.7,36.7c-20.2,0-36.7-16.4-36.7-36.7s16.4-36.7,36.7-36.7
		C584.9,32.3,601.3,48.7,601.3,69"/>
	<path class="st2" d="M560.1,70.1l-4.8-11.4l-4.8,11.4H560.1z M538.8,79.7l12-27.2c0.8-1.9,2.4-3,4.4-3h0.4c2.1,0,3.5,1.1,4.4,3
		l12,27.2c0.2,0.5,0.4,1,0.4,1.5c0,2-1.6,3.6-3.6,3.6c-1.8,0-3-1-3.6-2.6l-2.3-5.4h-15.2l-2.4,5.7c-0.6,1.5-1.9,2.4-3.5,2.4
		c-2,0-3.5-1.6-3.5-3.5C538.3,80.8,538.5,80.2,538.8,79.7"/>
	<path class="st2" d="M576.7,53.6c0-2.1,1.7-3.8,3.8-3.8s3.8,1.7,3.8,3.8v27.5c0,2.1-1.7,3.8-3.8,3.8s-3.8-1.7-3.8-3.8V53.6z"/>
</g>
</svg>
