<svg width="25" height="25" viewBox="0 0 25 25" fill="none" xmlns="http://www.w3.org/2000/svg">
<path fill-rule="evenodd" clip-rule="evenodd" d="M6.71072 2.37358L10.2432 8.02584H7.86249L7.81661 10.6934C7.67133 10.6843 7.52484 10.6797 7.37728 10.6797C6.64723 10.6797 5.94356 10.7926 5.28278 11.0019L5.31437 8.02584H3.17822L6.71072 2.37358ZM13.502 20.8487C13.8665 20.1612 14.1187 19.405 14.2341 18.6046H18.1558V16.389L23.8078 19.9216L18.1558 23.4543V20.8487H13.502ZM23.7077 6.31882C23.3101 4.06405 21.16 2.5585 18.9052 2.95608C16.7963 3.32795 15.3428 5.23299 15.4889 7.3228L9.09308 12.5865C8.29783 12.3301 7.43017 12.2585 6.55004 12.4137C3.66704 12.9221 1.74201 15.6713 2.25036 18.5543C2.75872 21.4373 5.50796 23.3624 8.39096 22.854C11.2165 22.3558 13.1219 19.7051 12.7181 16.8856C13.3606 16.1171 14.8959 14.4519 16.2127 13.0237C17.0286 12.1388 17.7606 11.3448 18.1444 10.9115C18.8225 11.1715 19.5777 11.2566 20.345 11.1213C22.5997 10.7237 24.1053 8.57358 23.7077 6.31882ZM22.5408 6.52454C22.2568 4.91399 20.721 3.8386 19.1104 4.12259C17.4999 4.40657 16.4245 5.9424 16.7085 7.55294C16.9924 9.16349 18.5283 10.2389 20.1388 9.9549C21.7494 9.67091 22.8247 8.13509 22.5408 6.52454ZM6.81328 13.9052C8.87257 13.5421 10.8363 14.9171 11.1994 16.9764C11.5625 19.0357 10.1875 20.9994 8.12822 21.3625C6.06894 21.7256 4.10519 20.3506 3.74208 18.2913C3.37897 16.232 4.75399 14.2683 6.81328 13.9052Z" fill="#65C9C9"/>
</svg>
